<svg id="Lag_1" data-name="Lag 1" xmlns="http://www.w3.org/2000/svg" width="1920" height="1080" viewBox="0 0 1920 1080"><defs><style>.cls-1{fill:#aee4ed;}.cls-2{fill:#795538;}.cls-3{fill:#ddb1b7;}.cls-4{fill:#c19765;}.cls-5{fill:#d18693;}.cls-6{fill:#fff;}.cls-7{fill:#f0e300;}.cls-8{fill:#3a3a38;}.cls-9{fill:none;stroke:#636363;stroke-miterlimit:10;}.cls-10{fill:#293241;}.cls-11{fill:#ffa300;}</style></defs><title>startskærm</title><rect class="cls-1" x="3" y="-1" width="1920" height="1080"/><path class="cls-2" d="M1512.15,1082.67a28.06,28.06,0,1,0-52.11,0Z"/><circle class="cls-2" cx="1514.22" cy="1031.17" r="28.05"/><circle class="cls-2" cx="1562.95" cy="1017.88" r="28.05"/><path class="cls-2" d="M1553.59,1082.67h13.92a28.05,28.05,0,1,0-13.92,0Z"/><path class="cls-2" d="M1494.57,1082.67H1534a28.06,28.06,0,1,0-39.44,0Z"/><circle class="cls-2" cx="1471.01" cy="1025.99" r="28.05"/><circle class="cls-2" cx="1514.51" cy="1010.73" r="28.05"/><path class="cls-2" d="M1556.31,1082.67a28,28,0,0,0-55.2,0Z"/><path class="cls-3" d="M105.76,962.67a1.5,1.5,0,0,0,0-3,1.5,1.5,0,0,0,0,3Z"/><ellipse class="cls-4" cx="214.64" cy="752.59" rx="30.26" ry="22.68" transform="translate(-544.09 560.77) rotate(-59.89)"/><ellipse class="cls-4" cx="175.4" cy="729.84" rx="30.26" ry="22.68" transform="translate(-543.96 515.48) rotate(-59.89)"/><rect class="cls-4" x="211.72" y="643.02" width="19.41" height="104.5" rx="9.71" transform="translate(378.63 -17.28) rotate(30.11)"/><path class="cls-3" d="M162.73,734.75a1.5,1.5,0,0,0,0-3,1.5,1.5,0,0,0,0,3Z"/><path class="cls-3" d="M178.69,740.46a1.5,1.5,0,0,0,0-3,1.5,1.5,0,0,0,0,3Z"/><path class="cls-3" d="M178.4,729.85a1.5,1.5,0,0,0,0-3,1.5,1.5,0,0,0,0,3Z"/><path class="cls-3" d="M177.42,719.49a1.5,1.5,0,0,0,0-3,1.5,1.5,0,0,0,0,3Z"/><path class="cls-3" d="M215.35,761.65a1.5,1.5,0,0,0,0-3,1.5,1.5,0,0,0,0,3Z"/><path class="cls-3" d="M226.63,751.2a1.5,1.5,0,0,0,0-3,1.5,1.5,0,0,0,0,3Z"/><path class="cls-3" d="M217.55,747a1.5,1.5,0,0,0,0-3,1.5,1.5,0,0,0,0,3Z"/><path class="cls-3" d="M201.52,765.09a1.5,1.5,0,0,0,0-3,1.5,1.5,0,0,0,0,3Z"/><path class="cls-3" d="M214,774.42a1.5,1.5,0,0,0,0-3,1.5,1.5,0,0,0,0,3Z"/><path class="cls-3" d="M164.35,751.22a1.5,1.5,0,0,0,0-3,1.5,1.5,0,0,0,0,3Z"/><rect class="cls-3" x="235.72" y="646.26" width="18.27" height="16.26" rx="6.82" transform="translate(361.28 -34.54) rotate(30.11)"/><ellipse class="cls-4" cx="1658.11" cy="181.32" rx="51.33" ry="21.51" transform="translate(891.42 1662.67) rotate(-68.88)"/><circle class="cls-4" cx="1646.29" cy="131.07" r="28.86"/><circle class="cls-4" cx="1700.13" cy="151.87" r="28.86"/><rect class="cls-3" x="1625.27" y="211.95" width="32.39" height="19.31" rx="9.12" transform="translate(224.38 -635.95) rotate(23.49)"/><circle class="cls-2" cx="339.67" cy="398.42" r="28.05"/><circle class="cls-2" cx="361.69" cy="353.75" r="28.05"/><circle class="cls-2" cx="408.05" cy="333.69" r="28.05"/><circle class="cls-2" cx="411.98" cy="372.66" r="28.05"/><circle class="cls-2" cx="366.23" cy="384.96" r="28.05"/><circle class="cls-2" cx="318.19" cy="354.74" r="28.05"/><circle class="cls-2" cx="359.09" cy="333.47" r="28.05"/><circle class="cls-2" cx="384.04" cy="407.62" r="28.05"/><circle class="cls-2" cx="1212.09" cy="177.27" r="28.05"/><circle class="cls-2" cx="1240.22" cy="136.17" r="28.05"/><circle class="cls-2" cx="1288.95" cy="122.88" r="28.05"/><circle class="cls-2" cx="1286.55" cy="160.48" r="28.05"/><circle class="cls-2" cx="1240.29" cy="167.72" r="28.05"/><circle class="cls-2" cx="1197.01" cy="130.99" r="28.05"/><circle class="cls-2" cx="1240.51" cy="115.73" r="28.05"/><circle class="cls-2" cx="1254.71" cy="192.67" r="28.05"/><ellipse class="cls-4" cx="806.56" cy="885.1" rx="21.51" ry="51.33" transform="translate(-289.23 402.21) rotate(-23.88)"/><circle class="cls-4" cx="850.44" cy="912.28" r="28.86"/><circle class="cls-4" cx="797.66" cy="935.64" r="28.86"/><rect class="cls-3" x="773.64" y="835.19" width="32.39" height="19.31" rx="9.12" transform="translate(1834.43 1341.28) rotate(158.49)"/><ellipse class="cls-4" cx="659.28" cy="199.09" rx="44.29" ry="72.12" transform="translate(-28.12 157.06) rotate(-13.3)"/><ellipse class="cls-4" cx="740.32" cy="178.92" rx="44.29" ry="72.12" transform="translate(-21.3 175.17) rotate(-13.3)"/><ellipse class="cls-3" cx="671.81" cy="253.87" rx="15.72" ry="16.11" transform="translate(-40.39 161.41) rotate(-13.3)"/><ellipse class="cls-5" cx="672.31" cy="254.06" rx="7.86" ry="8.06" transform="translate(-40.42 161.53) rotate(-13.3)"/><ellipse class="cls-3" cx="753.68" cy="232.64" rx="15.72" ry="16.11" transform="translate(-33.31 179.68) rotate(-13.3)"/><ellipse class="cls-5" cx="753.5" cy="233.14" rx="7.86" ry="8.06" transform="translate(-33.43 179.65) rotate(-13.3)"/><circle class="cls-4" cx="1168.27" cy="851.99" r="46.23"/><circle class="cls-4" cx="1255.29" cy="857.2" r="46.23"/><circle class="cls-3" cx="1168.27" cy="851.99" r="10.33"/><circle class="cls-5" cx="1168" cy="852.22" r="5.16"/><circle class="cls-3" cx="1255.32" cy="856.71" r="10.33"/><circle class="cls-5" cx="1255.06" cy="856.94" r="5.16"/><path class="cls-6" d="M112.38,397,32.63,376.55a6.59,6.59,0,0,0-8,4.73l-27,105.65v58.41L69.67,563.8a6.59,6.59,0,0,0,8-4.74L117.11,405A6.58,6.58,0,0,0,112.38,397Z"/><rect class="cls-7" x="12.56" y="400.01" width="80.95" height="128.68" rx="6" transform="translate(116.82 1.35) rotate(14.36)"/><rect class="cls-8" x="60.61" y="393.25" width="24.82" height="3.05" rx="1.31" transform="translate(100.19 -5.77) rotate(14.36)"/><circle class="cls-8" cx="56.32" cy="390.7" r="1.72"/><circle class="cls-9" cx="32.89" cy="539.2" r="7.06"/><path class="cls-6" d="M39.9,454.09s.47-18.8,14.83-19.46S72.18,445,72.18,445s1.83,3.62-2,16.84c0,0,6.21-1.16,6.66,1.71s-4.74,3.12-4.74,3.12-4.26-.3-2.72,4.43,2.92,8.63,7.07,10.88-.3,4.25-4.09,3.68a2.36,2.36,0,0,0-3.53,1.46c-1.13,2.86-5.83-.31-5.83-.31s-3.14-1.59-6.95,1-9.64.68-9.64.68S41.2,486,39.27,482.7s-7.39-3.47-7.39-3.47-3.34.73-3.13-3.16c0,0,1.12-1.29-4.24-3.45s-1.18-4.64,1-4.07,10.07-3.14,11.85-7c0,0,2.61-2.49-2.66-5,0,0-4.06-2.61-1.18-4.63C33.56,451.88,34.78,450.22,39.9,454.09Z"/><rect class="cls-6" x="521.42" y="797.07" width="95.46" height="172.21" rx="6.56" transform="translate(-129.39 98.34) rotate(-8.87)"/><rect class="cls-7" x="528.11" y="812.74" width="80.95" height="128.68" rx="6" transform="translate(-128.46 98.18) rotate(-8.87)"/><rect class="cls-8" x="547.09" y="803.74" width="24.82" height="3.05" rx="1.31" transform="translate(-117.49 95.92) rotate(-8.87)"/><circle class="cls-8" cx="542.55" cy="808.1" r="1.72"/><circle class="cls-9" cx="579.6" cy="953.81" r="7.06"/><path class="cls-6" d="M552.46,872.83s-7-17.46,6-23.73,20.12,2.66,20.12,2.66,3.12,2.6,4.86,16.24c0,0,5.25-3.52,6.79-1.06s-3.12,4.74-3.12,4.74-4,1.4-.75,5.14,6.08,6.78,10.79,7.21,1.4,4-2.31,5a2.36,2.36,0,0,0-2.67,2.73c.1,3.08-5.48,2-5.48,2s-3.51-.23-6,3.64-8.59,4.43-8.59,4.43-5.83-.25-8.88-2.48-8.16-.27-8.16-.27-2.78,2-4.13-1.68c0,0,.52-1.62-5.26-1.49s-2.91-3.8-.64-4.15,8-6.86,8.12-11.13c0,0,1.41-3.31-4.43-3.56,0,0-4.76-.8-2.91-3.79C545.77,873.3,546.23,871.29,552.46,872.83Z"/><path class="cls-6" d="M1099.44-3h-72.18L936.72,41.31a6.58,6.58,0,0,0-3,8.78L969.94,124a6.59,6.59,0,0,0,8.79,3l142.85-70a6.59,6.59,0,0,0,3-8.79Z"/><path class="cls-7" d="M1082-3h-37.39l-80,39.2a6,6,0,0,0-2.75,8L992.2,106.1a6,6,0,0,0,8,2.74L1105,57.5a6,6,0,0,0,2.75-8Z"/><rect class="cls-8" x="1088.29" y="15.35" width="24.82" height="3.05" rx="1.31" transform="translate(631.54 -978.97) rotate(63.9)"/><circle class="cls-8" cx="1092.97" cy="1.53" r="1.72"/><circle class="cls-9" cx="964.78" cy="80.08" r="7.06"/><path class="cls-6" d="M1034.08,30.17s14.61-11.83,24.43-1.34,3.43,20,3.43,20-1.57,3.74-14.08,9.45c0,0,4.92,4,3,6.17s-5.45-1.58-5.45-1.58-2.53-3.43-5.13.81-4.67,7.82-3.68,12.44-3.44,2.53-5.46-.73a2.36,2.36,0,0,0-3.4-1.73c-2.91,1-3.55-4.64-3.55-4.64s-.83-3.42-5.26-4.65-6.77-6.89-6.77-6.89-1.49-5.65-.27-9.22-2.16-7.88-2.16-7.88-2.71-2.07.38-4.43c0,0,1.71,0-.13-5.47s2.77-3.9,3.78-1.85,8.92,5.63,13,4.46c0,0,3.59.37,2.09-5.27,0,0-.64-4.79,2.77-3.91C1031.66,23.92,1033.71,23.77,1034.08,30.17Z"/><rect class="cls-6" x="1765.42" y="314.07" width="95.46" height="172.21" rx="6.56" transform="translate(-4.99 23.33) rotate(-0.74)"/><rect class="cls-7" x="1772.98" y="329.72" width="80.95" height="128.68" rx="6" transform="matrix(1, -0.01, 0.01, 1, -4.91, 23.34)"/><rect class="cls-8" x="1802.21" y="320.16" width="24.82" height="3.05" rx="1.31" transform="translate(-3.98 23.34) rotate(-0.74)"/><circle class="cls-8" cx="1797.44" cy="322.09" r="1.72"/><circle class="cls-9" cx="1813.49" cy="471.58" r="7.06"/><path class="cls-6" d="M1798.1,387.58s-4.44-18.28,9.25-22.65,19.55,5.47,19.55,5.47,2.71,3,2.5,16.77c0,0,5.7-2.74,6.88-.09s-3.77,4.25-3.77,4.25-4.19.82-1.46,5,5.06,7.57,9.66,8.66.81,4.19-3,4.62a2.36,2.36,0,0,0-3,2.33c-.35,3.06-5.72,1.22-5.72,1.22s-3.44-.72-6.45,2.75-9.13,3.17-9.13,3.17-5.74-1.07-8.45-3.71-8-1.42-8-1.42-3,1.57-3.85-2.24c0,0,.74-1.54-5-2.23s-2.35-4.17-.06-4.2,8.9-5.65,9.61-9.86c0,0,1.87-3.08-3.87-4.15,0,0-4.6-1.47-2.34-4.17C1791.41,387.09,1792.15,385.17,1798.1,387.58Z"/><path class="cls-10" d="M925.33,681.09a117.76,117.76,0,0,1-43.13,10.26,119.88,119.88,0,0,1-44.84-6.27,93.33,93.33,0,0,1-37.43-23.37q-11.4-12.15-20.14-35.53t-5.32-38.57q4.56-20.13,25.46-28.5t38.38,1.52q6.45,3.81,11.21,14.44a131.33,131.33,0,0,1,7.22,20.14q2.46,9.51,8,14.82t14.25.38q12.54-7.21,17.67-34.58a210.69,210.69,0,0,0,3.23-54q-1.9-26.6-6.84-39.14-2.67-7.22-12.92-7.79t-22.8-.76q-12.54-.18-19-5.89-12.16-11.4-8-34.58t20.14-32.3q15.19-8.36,50.92-12.35a299.56,299.56,0,0,1,71.44.57q35.71,4.56,46.36,19,8.36,11,6.08,33.63T1011.21,474a11.38,11.38,0,0,1-7.79,2.66,75,75,0,0,1-9.31-.57,38.15,38.15,0,0,0-9.31,0q-4.75.57-8.74,5.7t-6.27,15.39a60.9,60.9,0,0,0-1.33,20.33q.94,11.6,1.52,26.79t1.9,30.78a159.82,159.82,0,0,1-.57,31.92,175.25,175.25,0,0,1-6.08,30.21,70.17,70.17,0,0,1-39.9,43.89Z"/><path class="cls-10" d="M1306.46,607.75a175.34,175.34,0,0,1-50.92,56.81q-31.55,22.62-68.21,26.79T1114.19,675q-33.06-19.75-54-61.94T1039,531q0-41.42,20-74.67a156,156,0,0,1,53.77-53.77,119.9,119.9,0,0,1,42.75-16.15,130.11,130.11,0,0,1,44.83-.19A151.12,151.12,0,0,1,1243,400.65a171.91,171.91,0,0,1,37.82,26,149.42,149.42,0,0,1,45,79.42q4.56,22.62,0,49.21T1306.46,607.75ZM1188.86,576q17.67-9.3,25.64-29.45t1.71-39Q1210,488.81,1193,482t-34.58,2.66q-17.68,9.51-25.65,29.45T1131.1,553q6.27,19,23.18,25.65T1188.86,576Z"/><path class="cls-10" d="M1520,590.27q13.67,16.72,18.23,30.78t1,23.94a43,43,0,0,1-12.92,17.86,76.81,76.81,0,0,1-21.66,12.92,182.67,182.67,0,0,1-27.35,8.36,272.51,272.51,0,0,1-27.56,4.94c-8.35,1-16.47,1.65-24.31,1.9h-27a84.29,84.29,0,0,1-24.32-3.42,60.1,60.1,0,0,1-19.56-9.69q-8.19-6.27-12.74-18.05t-3.8-28.5q1.51-41-2.28-137.56,0-12.54-.38-26a115.26,115.26,0,0,1,2.47-27,128.65,128.65,0,0,1,7.61-24.51,44.26,44.26,0,0,1,15.38-18.62q10.64-7.59,25.84-9.5,46.74-4.94,94.44,15t71.63,57.95q15.57,24.71,15.76,49.4a80,80,0,0,1-12.54,44.65Q1543.2,575.07,1520,590.27ZM1418.38,523.2a33.46,33.46,0,1,0-9.7-23.56A32,32,0,0,0,1418.38,523.2Zm2.08,111.91a24.34,24.34,0,1,0-7.21-17.29A23.56,23.56,0,0,0,1420.46,635.11Z"/><path class="cls-11" d="M915.33,665.09a117.76,117.76,0,0,1-43.13,10.26,119.88,119.88,0,0,1-44.84-6.27,93.33,93.33,0,0,1-37.43-23.37q-11.4-12.15-20.14-35.53t-5.32-38.57q4.56-20.13,25.46-28.5t38.38,1.52q6.45,3.81,11.21,14.44a131.33,131.33,0,0,1,7.22,20.14q2.46,9.51,8,14.82t14.25.38q12.54-7.21,17.67-34.58a210.69,210.69,0,0,0,3.23-54q-1.9-26.6-6.84-39.14-2.67-7.22-12.92-7.79t-22.8-.76q-12.54-.18-19-5.89-12.16-11.4-8-34.58t20.14-32.3q15.19-8.36,50.92-12.35a299.56,299.56,0,0,1,71.44.57q35.71,4.56,46.36,19,8.35,11,6.08,33.63T1001.21,458a11.38,11.38,0,0,1-7.79,2.66,75,75,0,0,1-9.31-.57,38.15,38.15,0,0,0-9.31,0q-4.75.57-8.74,5.7t-6.27,15.39a60.9,60.9,0,0,0-1.33,20.33q.94,11.6,1.52,26.79t1.9,30.78a159.82,159.82,0,0,1-.57,31.92,175.25,175.25,0,0,1-6.08,30.21,70.17,70.17,0,0,1-39.9,43.89Z"/><path class="cls-11" d="M1296.46,591.75a175.34,175.34,0,0,1-50.92,56.81q-31.55,22.62-68.21,26.79T1104.19,659q-33.06-19.75-54-61.94T1029,515q0-41.42,20-74.67a156,156,0,0,1,53.77-53.77,119.9,119.9,0,0,1,42.75-16.15,130.11,130.11,0,0,1,44.83-.19A151.12,151.12,0,0,1,1233,384.65a171.91,171.91,0,0,1,37.82,26,149.42,149.42,0,0,1,45,79.42q4.56,22.62,0,49.21T1296.46,591.75ZM1178.86,560q17.67-9.3,25.64-29.45t1.71-39Q1200,472.81,1183,466t-34.58,2.66q-17.68,9.51-25.65,29.45T1121.1,537q6.27,19,23.18,25.65T1178.86,560Z"/><path class="cls-11" d="M1510,574.27q13.67,16.72,18.23,30.78t1,23.94a43,43,0,0,1-12.92,17.86,76.81,76.81,0,0,1-21.66,12.92,182.67,182.67,0,0,1-27.35,8.36,272.51,272.51,0,0,1-27.56,4.94c-8.35,1-16.47,1.65-24.31,1.9h-27a84.29,84.29,0,0,1-24.32-3.42,60.1,60.1,0,0,1-19.56-9.69q-8.19-6.27-12.74-18.05t-3.8-28.5q1.51-41-2.28-137.56,0-12.54-.38-26a115.26,115.26,0,0,1,2.47-27,128.65,128.65,0,0,1,7.61-24.51,44.26,44.26,0,0,1,15.38-18.62q10.64-7.59,25.84-9.5,46.74-4.94,94.44,15t71.63,57.95q15.57,24.71,15.76,49.4a80,80,0,0,1-12.54,44.65Q1533.2,559.07,1510,574.27ZM1408.38,507.2a33.46,33.46,0,1,0-9.7-23.56A32,32,0,0,0,1408.38,507.2Zm2.08,111.91a24.34,24.34,0,1,0-7.21-17.29A23.56,23.56,0,0,0,1410.46,619.11Z"/><path class="cls-10" d="M568.35,582.42Q582,599.15,586.59,613.2t.95,23.94Q583.92,647,574.62,655A76.81,76.81,0,0,1,553,667.92a183.17,183.17,0,0,1-27.36,8.36,271.86,271.86,0,0,1-27.55,4.94q-12.54,1.53-24.32,1.9h-27a84.19,84.19,0,0,1-24.32-3.42A60.15,60.15,0,0,1,402.86,670q-8.17-6.27-12.73-18t-3.8-28.5q1.51-41-2.28-137.56,0-12.54-.38-26a114.2,114.2,0,0,1,2.47-27,129.38,129.38,0,0,1,7.6-24.51,44.21,44.21,0,0,1,15.39-18.62q10.64-7.59,25.84-9.5,46.74-4.93,94.43,15t71.63,58q15.57,24.7,15.77,49.4a80.17,80.17,0,0,1-12.54,44.65Q591.53,567.22,568.35,582.42ZM466.7,515.35A33.49,33.49,0,1,0,457,491.79,32.07,32.07,0,0,0,466.7,515.35Zm2.09,111.91A24.31,24.31,0,1,0,461.57,610,23.55,23.55,0,0,0,468.79,627.26Z"/><path class="cls-11" d="M556.35,574.42Q570,591.15,574.59,605.2t.95,23.94Q571.92,639,562.62,647A76.81,76.81,0,0,1,541,659.92a183.17,183.17,0,0,1-27.36,8.36,271.86,271.86,0,0,1-27.55,4.94q-12.54,1.53-24.32,1.9h-27a84.19,84.19,0,0,1-24.32-3.42A60.15,60.15,0,0,1,390.86,662q-8.17-6.27-12.73-18t-3.8-28.5q1.51-41-2.28-137.56,0-12.54-.38-26a114.2,114.2,0,0,1,2.47-27,129.38,129.38,0,0,1,7.6-24.51,44.21,44.21,0,0,1,15.39-18.62q10.64-7.59,25.84-9.5,46.74-4.93,94.43,15t71.63,58q15.57,24.7,15.77,49.4a80.17,80.17,0,0,1-12.54,44.65Q579.53,559.22,556.35,574.42ZM454.7,507.35A33.49,33.49,0,1,0,445,483.79,32.07,32.07,0,0,0,454.7,507.35Zm2.09,111.91A24.31,24.31,0,1,0,449.57,602,23.55,23.55,0,0,0,456.79,619.26Z"/><path class="cls-10" d="M659.57,476.34c-5.27,2.27-15.93,11.82-17.62,21.78-2.52,14.9,26.7,19.58,26.7,19.58s60,11.13,105.94,6.31c9.17-1,28.66-4.58,33.41-19.86a21,21,0,0,0,.56-10.69c-2.24-9.81-12.63-17.06-26.37-18.54C730.85,467.39,679,468,659.57,476.34Z"/><path class="cls-11" d="M651.57,471.34c-5.27,2.27-15.93,11.82-17.62,21.78-2.52,14.9,26.7,19.58,26.7,19.58s60,11.13,105.94,6.31c9.17-1,28.66-4.58,33.41-19.86a21,21,0,0,0,.56-10.69c-2.24-9.81-12.63-17.06-26.37-18.54C722.85,462.39,671,463,651.57,471.34Z"/><path class="cls-10" d="M1283.07,754.7a47.63,47.63,0,0,0,6.07-2.85c2.53-1.37,4.28-2.31,5.24-2.85a85.56,85.56,0,0,1,9.71-3.2,66,66,0,0,1,11-1.89,16.76,16.76,0,0,1,10.39,2.09,13.32,13.32,0,0,1,6,8.45,12.82,12.82,0,0,1,.47,4.85,5.52,5.52,0,0,1-1.15,3.09,6,6,0,0,1-1.89,1.44,8.77,8.77,0,0,1-2.61.69l-.19.06a150.81,150.81,0,0,1,4.27,19.55,76.37,76.37,0,0,1,0,20.82q-1.45,11.25-7,18.32a43.92,43.92,0,0,1-14,11.4,64.17,64.17,0,0,1-17.66,6.35,75,75,0,0,1-18.26,1.35A41.06,41.06,0,0,1,1254,837a44.67,44.67,0,0,1-14.5-12.9,87.18,87.18,0,0,1-9.63-17.51,66.87,66.87,0,0,1-5-19.38,154.34,154.34,0,0,1-1.17-27.73,102.47,102.47,0,0,1,5-26.06A91.24,91.24,0,0,1,1242,707.79a128.39,128.39,0,0,1,23.23-23.89,33.66,33.66,0,0,1,13.55-7,37.06,37.06,0,0,1,14.13-1,31.91,31.91,0,0,1,12.34,4.38,29.23,29.23,0,0,1,9.06,8.35,21,21,0,0,1,3.52,11.68,29.15,29.15,0,0,1-3.52,14,36.35,36.35,0,0,1-10.72,11.44,116,116,0,0,1-15.19,9.43q-7.82,4.05-15.41,8.55a48.63,48.63,0,0,0-12.7,10.63,23.18,23.18,0,0,0-5.61,13.5,51.11,51.11,0,0,0,1.63,12,38.6,38.6,0,0,0,5.82,12.52q4.21,6.14,9.29,8.08a14.65,14.65,0,0,0,9.44.08,29.64,29.64,0,0,0,9.61-4.73,22.5,22.5,0,0,0,6.74-8.11,13.29,13.29,0,0,0,1.19-9.53,14,14,0,0,0-.76-2.07l-11.22,2.16a11.36,11.36,0,0,1-7.08-.91,9.05,9.05,0,0,1-4.41-4.52,14.43,14.43,0,0,1-1.19-6.41,11.67,11.67,0,0,1,2.57-6.68A15.73,15.73,0,0,1,1283.07,754.7Z"/><path class="cls-10" d="M1369.27,658.69a42.58,42.58,0,0,1,15.06-7.94,41.08,41.08,0,0,1,17.06-1.23,64.09,64.09,0,0,1,17.86,5.28A70.86,70.86,0,0,1,1437,666.64a108.78,108.78,0,0,1,16.09,18.07,128.27,128.27,0,0,1,13.5,24.65,170.58,170.58,0,0,1,9.64,30.76q.27,1.78,1.54,7.35t1.88,8.61c.4,2,.85,4.6,1.33,7.71a71.2,71.2,0,0,1,.84,8.58,59.15,59.15,0,0,1-.23,7.3,14.92,14.92,0,0,1-5.74,10.33,21.55,21.55,0,0,1-12.64,4.6,24,24,0,0,1-14.49-3.9,14.16,14.16,0,0,1-6.74-7.83,27.46,27.46,0,0,1-1.78-10.18,33,33,0,0,0-1.52-10.36,15.89,15.89,0,0,0-5.75-8.4q-5.16-3.81-13.14-2.3t-12,5.88a12.55,12.55,0,0,0-3.74,6.17q-1,4,1.08,13.37t1.44,14.73a30.17,30.17,0,0,1-6.18,14.89,23.62,23.62,0,0,1-12,8.57,14,14,0,0,1-8,0,15.34,15.34,0,0,1-6.87-4.8,67.58,67.58,0,0,1-5.79-7.77,50.58,50.58,0,0,1-4.89-10.6q-2.23-6.43-3.81-11.2c-1-3.16-2.1-7.1-3.14-11.79s-1.76-8.18-2.17-10.49-1-5.23-1.61-8.78l-.52-1.93q-6-32.75-.89-55.44T1369.27,658.69Zm25.85,69.49a18.1,18.1,0,0,0,24.54-6.53,17.86,17.86,0,0,0-6.53-24.55,18.13,18.13,0,0,0-24.55,6.54,17.87,17.87,0,0,0,6.54,24.54Z"/><path class="cls-10" d="M1596.24,727.62a22.38,22.38,0,0,1-6,5.65,17.52,17.52,0,0,1-6.27,2.49,16,16,0,0,1-6.9-.64,48.24,48.24,0,0,1-6.88-2.52,52.07,52.07,0,0,1-7.27-4.38c-2.87-2-5.15-3.66-6.82-5s-4-3.22-6.87-5.62-5.06-4.1-6.44-5.12q-9.18-7.28-12.17-4.52t-.33,15.09a125.75,125.75,0,0,0,4.38,13.74,90.4,90.4,0,0,1,4.66,17.49,26.91,26.91,0,0,1-1.51,14.17,18.82,18.82,0,0,1-9,10,20.72,20.72,0,0,1-12.46,2.18,26.28,26.28,0,0,1-11.72-4.74,17.87,17.87,0,0,1-7-9.4q-1.38-4.39-5.38-17.1t-6.46-21.15q-2.46-8.44-5.93-21.49a193.76,193.76,0,0,1-4.81-22.73q-1.34-9.69-1.93-20.08a58.13,58.13,0,0,1,1.47-18.19,33,33,0,0,1,6.3-12.86q12-13.12,25.65-14.07t27,10.41q3.43,2.81,9.82,10.84a100.69,100.69,0,0,0,12.7,13.49,24.82,24.82,0,0,0,13.17,6.32q4.77.81,8.83-6.08a57.21,57.21,0,0,0,6.22-15.52q2.14-8.64,4.48-18.16t3.84-12.41a36.64,36.64,0,0,1,10.43-12.5,28.61,28.61,0,0,1,15-5.86,23.59,23.59,0,0,1,15.68,4.1q6.81,4.6,16,16.35a251.49,251.49,0,0,1,18.07,27.06,194.19,194.19,0,0,1,15,32.33,147.65,147.65,0,0,1,7.86,31.85q1.77,14.83-4.46,26t-20.88,14.46q-8.42,1.83-14-1.75a23.54,23.54,0,0,1-8.78-10.81,114.5,114.5,0,0,1-5.37-15.12q-2.22-7.9-5.27-16.3t-6.92-12.75q-7.93-8.85-16.54,12.48-1.92,4.44-5.22,13.81Q1598.38,724.77,1596.24,727.62Z"/><path class="cls-10" d="M1718.08,716.5a29,29,0,0,1-9.28-7.67,43,43,0,0,1-6.61-11.59q-2.6-6.66-4.16-12.14t-3.41-13.58q-1.84-8.1-2.77-11.58-18.31-61.76,1.33-84.38a54.4,54.4,0,0,1,14.41-11.18,63.39,63.39,0,0,1,17.51-6.53,69.9,69.9,0,0,1,18.27-1.35,49.86,49.86,0,0,1,16.6,3.66,30.44,30.44,0,0,1,12.2,9.27,27.35,27.35,0,0,1,5.65,14.64,18.85,18.85,0,0,1-3.18,12.54,22,22,0,0,1-9.53,7.71,105.31,105.31,0,0,1-12.7,4.42q-6.83,1.92-12.42,3.1a25.58,25.58,0,0,0-8.75,3.26c-2.12,1.39-2.75,3.15-1.91,5.27s2.82,2.7,6.05,2.11a71.49,71.49,0,0,0,11.35-3.23,121.73,121.73,0,0,1,13.42-4,22.62,22.62,0,0,1,13.6.93q6.69,2.56,10.64,10.41,4.45,9,3.37,15.77a14.83,14.83,0,0,1-6,10.3,54.66,54.66,0,0,1-11.53,6.07,50.45,50.45,0,0,1-13.1,3.28,74.16,74.16,0,0,0-10.88,1.86c-2.9.78-4.51,1.34-4.83,1.7q-.82,3.12,1.27,4t6.12,0q4-.87,9.23-2.25a93.84,93.84,0,0,1,11-2.21,61.58,61.58,0,0,1,11.13-.58,19.68,19.68,0,0,1,10,3.24,18.51,18.51,0,0,1,7,8.8q3.59,8.77,2.73,13.35T1793,700.27Q1782.8,710,1761.2,716t-35.61,3.06A26.09,26.09,0,0,1,1718.08,716.5Z"/><path class="cls-6" d="M1268.07,746.7a47.63,47.63,0,0,0,6.07-2.85c2.53-1.37,4.28-2.31,5.24-2.85a85.56,85.56,0,0,1,9.71-3.2,66,66,0,0,1,11-1.89,16.76,16.76,0,0,1,10.39,2.09,13.32,13.32,0,0,1,6,8.45,12.82,12.82,0,0,1,.47,4.85,5.52,5.52,0,0,1-1.15,3.09,6,6,0,0,1-1.89,1.44,8.77,8.77,0,0,1-2.61.69l-.19.06a150.81,150.81,0,0,1,4.27,19.55,76.37,76.37,0,0,1,0,20.82q-1.45,11.25-7,18.32a43.92,43.92,0,0,1-14,11.4,64.17,64.17,0,0,1-17.66,6.35,75,75,0,0,1-18.26,1.35A41.06,41.06,0,0,1,1239,829a44.67,44.67,0,0,1-14.5-12.9,87.18,87.18,0,0,1-9.63-17.51,66.87,66.87,0,0,1-5-19.38,154.34,154.34,0,0,1-1.17-27.73,102.47,102.47,0,0,1,5-26.06A91.24,91.24,0,0,1,1227,699.79a128.39,128.39,0,0,1,23.23-23.89,33.66,33.66,0,0,1,13.55-7,37.06,37.06,0,0,1,14.13-1,31.91,31.91,0,0,1,12.34,4.38,29.23,29.23,0,0,1,9.06,8.35,21,21,0,0,1,3.52,11.68,29.15,29.15,0,0,1-3.52,14,36.35,36.35,0,0,1-10.72,11.44,116,116,0,0,1-15.19,9.43q-7.82,4.05-15.41,8.55a48.63,48.63,0,0,0-12.7,10.63,23.18,23.18,0,0,0-5.61,13.5,51.11,51.11,0,0,0,1.63,12,38.6,38.6,0,0,0,5.82,12.52q4.21,6.14,9.29,8.08a14.65,14.65,0,0,0,9.44.08,29.64,29.64,0,0,0,9.61-4.73,22.5,22.5,0,0,0,6.74-8.11,13.29,13.29,0,0,0,1.19-9.53,14,14,0,0,0-.76-2.07l-11.22,2.16a11.36,11.36,0,0,1-7.08-.91,9.05,9.05,0,0,1-4.41-4.52,14.43,14.43,0,0,1-1.19-6.41,11.67,11.67,0,0,1,2.57-6.68A15.73,15.73,0,0,1,1268.07,746.7Z"/><path class="cls-6" d="M1354.27,650.69a42.58,42.58,0,0,1,15.06-7.94,41.08,41.08,0,0,1,17.06-1.23,64.09,64.09,0,0,1,17.86,5.28A70.86,70.86,0,0,1,1422,658.64a108.78,108.78,0,0,1,16.09,18.07,128.27,128.27,0,0,1,13.5,24.65,170.58,170.58,0,0,1,9.64,30.76q.27,1.78,1.54,7.35t1.88,8.61c.4,2,.85,4.6,1.33,7.71a71.2,71.2,0,0,1,.84,8.58,59.15,59.15,0,0,1-.23,7.3,14.92,14.92,0,0,1-5.74,10.33,21.55,21.55,0,0,1-12.64,4.6,24,24,0,0,1-14.49-3.9,14.16,14.16,0,0,1-6.74-7.83,27.46,27.46,0,0,1-1.78-10.18,33,33,0,0,0-1.52-10.36,15.89,15.89,0,0,0-5.75-8.4q-5.16-3.81-13.14-2.3t-12,5.88a12.55,12.55,0,0,0-3.74,6.17q-1,4,1.08,13.37t1.44,14.73a30.17,30.17,0,0,1-6.18,14.89,23.62,23.62,0,0,1-12,8.57,14,14,0,0,1-8,0,15.34,15.34,0,0,1-6.87-4.8,67.58,67.58,0,0,1-5.79-7.77,50.58,50.58,0,0,1-4.89-10.6q-2.23-6.43-3.81-11.2c-1-3.16-2.1-7.1-3.14-11.79s-1.76-8.18-2.17-10.49-1-5.23-1.61-8.78l-.52-1.93q-6-32.75-.89-55.44T1354.27,650.69Zm25.85,69.49a18.1,18.1,0,0,0,24.54-6.53,17.86,17.86,0,0,0-6.53-24.55,18.13,18.13,0,0,0-24.55,6.54,17.87,17.87,0,0,0,6.54,24.54Z"/><path class="cls-6" d="M1581.24,719.62a22.38,22.38,0,0,1-6,5.65,17.52,17.52,0,0,1-6.27,2.49,16,16,0,0,1-6.9-.64,48.24,48.24,0,0,1-6.88-2.52,52.07,52.07,0,0,1-7.27-4.38c-2.87-2-5.15-3.66-6.82-5s-4-3.22-6.87-5.62-5.06-4.1-6.44-5.12q-9.18-7.28-12.17-4.52t-.33,15.09a125.75,125.75,0,0,0,4.38,13.74,90.4,90.4,0,0,1,4.66,17.49,26.91,26.91,0,0,1-1.51,14.17,18.82,18.82,0,0,1-9,10,20.72,20.72,0,0,1-12.46,2.18,26.28,26.28,0,0,1-11.72-4.74,17.87,17.87,0,0,1-7-9.4q-1.38-4.39-5.38-17.1t-6.46-21.15q-2.46-8.44-5.93-21.49a193.76,193.76,0,0,1-4.81-22.73q-1.34-9.69-1.93-20.08a58.13,58.13,0,0,1,1.47-18.19,33,33,0,0,1,6.3-12.86q12-13.12,25.65-14.07t27,10.41q3.43,2.81,9.82,10.84a100.69,100.69,0,0,0,12.7,13.49,24.82,24.82,0,0,0,13.17,6.32q4.77.81,8.83-6.08a57.21,57.21,0,0,0,6.22-15.52q2.14-8.64,4.48-18.16t3.84-12.41a36.64,36.64,0,0,1,10.43-12.5,28.61,28.61,0,0,1,15-5.86,23.59,23.59,0,0,1,15.68,4.1q6.81,4.6,16,16.35a251.49,251.49,0,0,1,18.07,27.06,194.19,194.19,0,0,1,15,32.33,147.65,147.65,0,0,1,7.86,31.85q1.77,14.83-4.46,26t-20.88,14.46q-8.42,1.83-14-1.75a23.54,23.54,0,0,1-8.78-10.81,114.5,114.5,0,0,1-5.37-15.12q-2.22-7.9-5.27-16.3t-6.92-12.75q-7.93-8.85-16.54,12.48-1.92,4.44-5.22,13.81Q1583.38,716.77,1581.24,719.62Z"/><path class="cls-6" d="M1703.08,708.5a29,29,0,0,1-9.28-7.67,43,43,0,0,1-6.61-11.59q-2.6-6.66-4.16-12.14t-3.41-13.58q-1.84-8.1-2.77-11.58-18.31-61.76,1.33-84.38a54.4,54.4,0,0,1,14.41-11.18,63.39,63.39,0,0,1,17.51-6.53,69.9,69.9,0,0,1,18.27-1.35,49.86,49.86,0,0,1,16.6,3.66,30.44,30.44,0,0,1,12.2,9.27,27.35,27.35,0,0,1,5.65,14.64,18.85,18.85,0,0,1-3.18,12.54,22,22,0,0,1-9.53,7.71,105.31,105.31,0,0,1-12.7,4.42q-6.83,1.92-12.42,3.1a25.58,25.58,0,0,0-8.75,3.26c-2.12,1.39-2.75,3.15-1.91,5.27s2.82,2.7,6.05,2.11a71.49,71.49,0,0,0,11.35-3.23,121.73,121.73,0,0,1,13.42-4,22.62,22.62,0,0,1,13.6.93q6.69,2.56,10.64,10.41,4.45,9,3.37,15.77a14.83,14.83,0,0,1-6,10.3,54.66,54.66,0,0,1-11.53,6.07,50.45,50.45,0,0,1-13.1,3.28,74.16,74.16,0,0,0-10.88,1.86c-2.9.78-4.51,1.34-4.83,1.7q-.82,3.12,1.27,4t6.12,0q4-.87,9.23-2.25a93.84,93.84,0,0,1,11-2.21,61.58,61.58,0,0,1,11.13-.58,19.68,19.68,0,0,1,10,3.24,18.51,18.51,0,0,1,7,8.8q3.59,8.77,2.73,13.35T1778,692.27Q1767.8,702,1746.2,708t-35.61,3.06A26.09,26.09,0,0,1,1703.08,708.5Z"/><polygon class="cls-10" points="55 976 55 958 79 958 55 976"/><path class="cls-11" d="M239.52,1045.83h-153C71.36,1045.83,59,1033,59,1017.29V986.54C59,970.84,71.36,958,86.48,958h153c15.12,0,27.48,12.84,27.48,28.54v30.75C267,1033,254.64,1045.83,239.52,1045.83Z"/><polygon class="cls-11" points="89.13 1064 89.13 1045.83 112.46 1045.83 89.13 1064"/><rect class="cls-10" x="26" y="872" width="241" height="87" rx="30"/><path class="cls-6" d="M67,898.11a15.26,15.26,0,0,1,11.5.09,12,12,0,0,1,4.42,3.63,16.79,16.79,0,0,1,2.78,5.27,17.47,17.47,0,0,1,.8,5.9,15.42,15.42,0,0,1-1.15,5.55,9.45,9.45,0,0,1-3.39,4.15,10.17,10.17,0,0,1-5.65,1.75,16.34,16.34,0,0,1-2,0c-.62,0-1.18,0-1.7,0a13.57,13.57,0,0,0-1.4.12,2.25,2.25,0,0,0-1,.4,1.77,1.77,0,0,0-.6.83,3,3,0,0,0-.1,1.43,13.54,13.54,0,0,0,.45,2.19,9.82,9.82,0,0,1,.47,2.78,7.39,7.39,0,0,1-.37,2.53,3.17,3.17,0,0,1-1.62,1.82,5.56,5.56,0,0,1-3.13.43,5.34,5.34,0,0,1-2.15-.63,6.44,6.44,0,0,1-1.55-1.15,4.75,4.75,0,0,1-1-1.8c-.27-.78-.47-1.45-.6-2a13.41,13.41,0,0,1-.28-2.32c-.05-1-.06-1.74-.05-2.23s0-1.23.08-2.25.05-1.64.05-1.87c0-1,0-2.49-.11-4.35s-.16-3.49-.2-4.88a39.67,39.67,0,0,1,.18-4.5,15.3,15.3,0,0,1,1.09-4.5,11.44,11.44,0,0,1,2.48-3.67A12.41,12.41,0,0,1,67,898.11Zm4,16.54a3,3,0,0,0,4.8,0,4.7,4.7,0,0,0,0-5.8,3,3,0,0,0-4.8,0,4.71,4.71,0,0,0,0,5.8Z"/><path class="cls-6" d="M114.82,900.74a14.57,14.57,0,0,1,4.53,6.82,13.34,13.34,0,0,1,0,8,10,10,0,0,1-2.37,4.22,3.9,3.9,0,0,1-2.57,1.48,7.7,7.7,0,0,1,2.6,2.07,16.8,16.8,0,0,1,2.42,3.6,17,17,0,0,1,1.48,4,5.64,5.64,0,0,1-.33,3.7,4.21,4.21,0,0,1-2.87,2.28,16.81,16.81,0,0,1-3.77.55,5.72,5.72,0,0,1-2.68-.6,6.78,6.78,0,0,1-1.88-1.4,10.34,10.34,0,0,1-1.32-1.87,21,21,0,0,1-1-2,11,11,0,0,0-1-1.82,5.06,5.06,0,0,0-1.17-1.33,6.27,6.27,0,0,0-2.13-1,1.42,1.42,0,0,0-1.32.25,2.69,2.69,0,0,0-.7,1.17,7.24,7.24,0,0,0-.33,1.78c-.05.68-.1,1.34-.15,2a14.69,14.69,0,0,1-.25,1.83,3.13,3.13,0,0,1-.52,1.32,3.79,3.79,0,0,1-2.55,1.43,6.15,6.15,0,0,1-3.05-.32,6.57,6.57,0,0,1-2.35-1.45,5.21,5.21,0,0,1-1.2-2.6,25,25,0,0,1-.38-4.53c0-1.88,0-2.87,0-3,0-.34-.07-.87-.1-1.6-.2-2.34-.33-4.19-.38-5.55s-.07-3.14,0-5.3a26.58,26.58,0,0,1,.62-5.85,18.61,18.61,0,0,1,1.7-4.65,11.16,11.16,0,0,1,4.55-4.7,12.26,12.26,0,0,1,6.15-1.58,19.37,19.37,0,0,1,6.55,1.22A18.53,18.53,0,0,1,114.82,900.74Zm-13.15,15.63a4.3,4.3,0,0,0,3.28,1.47,4.37,4.37,0,0,0,3.3-1.47,5.35,5.35,0,0,0,0-7.15,4.35,4.35,0,0,0-3.3-1.48,4.29,4.29,0,0,0-3.28,1.48,5.41,5.41,0,0,0,0,7.15Z"/><path class="cls-6" d="M126.67,909a4,4,0,0,1,2.8-1.11,5.24,5.24,0,0,1,2.88,1.05,5.38,5.38,0,0,1,1.92,2.5,15.27,15.27,0,0,1,1,5.08c.08,1.91.07,4-.05,6.35a51.55,51.55,0,0,0-.07,5.27,13.55,13.55,0,0,1-.08,2.7,12.76,12.76,0,0,1-.62,2.65,6.3,6.3,0,0,1-1.23,2.18,4,4,0,0,1-1.92,1.22,4.4,4.4,0,0,1-2.7-.15q-2.4-.74-3.6-4.79a29,29,0,0,1-1.13-8.75,53.33,53.33,0,0,1,.85-8.9Q125.52,910.14,126.67,909Zm-.73-8.2a5.52,5.52,0,0,1,0-7.71,5.18,5.18,0,0,1,3.82-1.6,5.44,5.44,0,0,1,3.86,9.3,5.42,5.42,0,0,1-7.68,0Z"/><path class="cls-6" d="M157.17,906.13a33.9,33.9,0,0,1,2.05-5.58,4.78,4.78,0,0,1,2.5-2.63q5.75-1.95,6.45,5.85.71,7.2-2.65,18.7-2.49,8.7-4.69,11.25l-.45.45a13.77,13.77,0,0,1-5.15,2.46,8.75,8.75,0,0,1-4.25,0,8.38,8.38,0,0,1-3.48-2.28,21.32,21.32,0,0,1-2.7-3.35,27.85,27.85,0,0,1-2.07-4.17c-.7-1.7-1.2-3-1.48-3.82s-.61-1.91-1-3.18a4.82,4.82,0,0,0-.15-.5,35.93,35.93,0,0,1-1-5.32,51.86,51.86,0,0,1-.33-6.73,17.33,17.33,0,0,1,1.22-6.4,6,6,0,0,1,3.43-3.65,5.6,5.6,0,0,1,1.82-.35,3.64,3.64,0,0,1,1.45.27,3.54,3.54,0,0,1,1.15.85,6.45,6.45,0,0,1,.88,1.23,8.42,8.42,0,0,1,.62,1.57,15.3,15.3,0,0,1,.43,1.75c.1.55.2,1.17.3,1.85s.17,1.28.2,1.78.07,1,.12,1.65.1,1.05.13,1.35c0,.1,0,.76.13,2s.17,2.31.27,3.22a15.17,15.17,0,0,0,.58,2.8c.28,1,.66,1.51,1.12,1.68a.94.94,0,0,0,1.13-.4,6.45,6.45,0,0,0,.95-2.15c.28-1,.54-2,.77-3.06s.51-2.25.83-3.65S156.94,907,157.17,906.13Z"/><path class="cls-6" d="M183.07,897.92a10.71,10.71,0,0,1,4.15-1,10.42,10.42,0,0,1,4.2.8,16.08,16.08,0,0,1,4,2.43,17.82,17.82,0,0,1,3.53,4,27.47,27.47,0,0,1,2.72,5.39,31.9,31.9,0,0,1,1.68,6.83,41.74,41.74,0,0,1,.35,8.05c0,.3-.06.92-.09,1.87s-.07,1.69-.1,2.2-.1,1.17-.18,2a16.32,16.32,0,0,1-.35,2.13,14.54,14.54,0,0,1-.52,1.75,3.68,3.68,0,0,1-2.05,2.12,5.31,5.31,0,0,1-3.35.31,6,6,0,0,1-3.25-1.88,3.57,3.57,0,0,1-1.13-2.32,6.85,6.85,0,0,1,.23-2.58,8.37,8.37,0,0,0,.3-2.6,3.79,3.79,0,0,0-3.88-3.8,5.3,5.3,0,0,0-3.28.65,3.08,3.08,0,0,0-1.29,1.26,8,8,0,0,0-.6,3.3,11.83,11.83,0,0,1-.6,3.65,7.61,7.61,0,0,1-2.45,3.2,6,6,0,0,1-3.45,1.3,3.54,3.54,0,0,1-1.93-.53,3.79,3.79,0,0,1-1.35-1.6,16,16,0,0,1-.9-2.25,13,13,0,0,1-.5-2.87c-.08-1.13-.15-2.12-.2-3s-.05-1.85,0-3,.1-2.09.15-2.68.11-1.32.17-2.22v-.5q.65-8.3,3.35-13.45T183.07,897.92Zm1.78,18.45a4.54,4.54,0,0,0,6.35,0,4.47,4.47,0,0,0,0-6.35,4.51,4.51,0,0,0-6.35,0,4.47,4.47,0,0,0,0,6.35Z"/><path class="cls-6" d="M225.17,909.85a.16.16,0,0,0,0,.1q-1.31,1.45-1.75,5.13a39.31,39.31,0,0,0-.25,7,29.22,29.22,0,0,0,.71,5.32,9.2,9.2,0,0,1-.08,4.8,6.7,6.7,0,0,1-2.62,3.78,5.45,5.45,0,0,1-4.65.72,5.64,5.64,0,0,1-3.28-2,6.83,6.83,0,0,1-1.3-3.6,25.58,25.58,0,0,1,0-4.53c.15-1.62.39-3.29.72-5s.63-3.38.88-4.93a24.18,24.18,0,0,0,.32-4.38,6,6,0,0,0-.8-3.19,3.22,3.22,0,0,0-1.63-1.25,11,11,0,0,0-2.3-.65c-.78-.14-1.55-.3-2.3-.5a3.65,3.65,0,0,1-1.82-1.08,2.93,2.93,0,0,1-.7-2.07,7,7,0,0,1,2.05-5,10.9,10.9,0,0,1,5-2.85,28.59,28.59,0,0,1,6.7-.93,33.44,33.44,0,0,1,7,.53,28.3,28.3,0,0,1,6,1.74,8.76,8.76,0,0,1,3.66,2.48,5,5,0,0,1,.92,2.77,7.05,7.05,0,0,1-.5,3,7.27,7.27,0,0,1-1.65,2.5,3.91,3.91,0,0,1-2.32,1.23,5.69,5.69,0,0,1-2.13-.12,5.61,5.61,0,0,0-2.1-.15A3.24,3.24,0,0,0,225.17,909.85Z"/><path class="cls-6" d="M106.78,1005.25a11.6,11.6,0,0,1-6.61-5.84,12.81,12.81,0,0,1-1.25-4.78,17.35,17.35,0,0,1,.38-5.2,13.26,13.26,0,0,1,2.14-4.75,10.46,10.46,0,0,1,3.88-3.38,16.11,16.11,0,0,1,4-1.27,26.09,26.09,0,0,1,5-.5,13,13,0,0,1,4.9.87,6.78,6.78,0,0,1,3.43,2.65,5.77,5.77,0,0,1,.25,4.82,6,6,0,0,1-3,3.88,4.52,4.52,0,0,1-2.75.18,16.61,16.61,0,0,1-3.1-.9,8.42,8.42,0,0,0-2.95-.63,2.48,2.48,0,0,0-2.25,1,2.27,2.27,0,0,0-.6,1.28,1.71,1.71,0,0,0,.33,1.15,5.68,5.68,0,0,0,.92,1,7.72,7.72,0,0,0,1.35.9l1.5.77c.47.24.95.47,1.45.7s.87.42,1.1.55a29.6,29.6,0,0,1,3.23,2.18,15.52,15.52,0,0,1,2.7,2.77,8.09,8.09,0,0,1,1.58,7.7,14.15,14.15,0,0,1-2.55,5,10.7,10.7,0,0,1-4.87,3.38,24.34,24.34,0,0,1-7,1.6,16.49,16.49,0,0,1-6.92-.92,8.07,8.07,0,0,1-4.68-3.8,8.26,8.26,0,0,1-.75-3.08,7.58,7.58,0,0,1,.55-3.35,4.13,4.13,0,0,1,4.87-2.67,10.79,10.79,0,0,1,3,1,13,13,0,0,0,2.82,1.08,2.89,2.89,0,0,0,2.33-.18,1.57,1.57,0,0,0,.62-.67.68.68,0,0,0-.1-.65,2.82,2.82,0,0,0-.55-.6,4.7,4.7,0,0,0-.87-.55c-.37-.18-.66-.32-.88-.4A5.51,5.51,0,0,1,106.78,1005.25Z"/><path class="cls-6" d="M159.43,1017.74a8.74,8.74,0,0,1-4,2.22,8.26,8.26,0,0,1-4.93-.52,14.21,14.21,0,0,1-5.25-3.85,4.55,4.55,0,0,1-.4-.45c-.13-.17-.29-.36-.45-.6s-.3-.42-.4-.57l-.45-.68c-.37-.53-.64-.92-.83-1.17s-.44-.59-.77-1a4.2,4.2,0,0,0-.78-.8,1.83,1.83,0,0,0-.67-.25.57.57,0,0,0-.63.25,4,4,0,0,0-.45,1.07,12.37,12.37,0,0,0-.37,2,4.78,4.78,0,0,1-.05.5q-.1,1.11-.18,1.65a9.11,9.11,0,0,1-.32,1.4,4,4,0,0,1-.63,1.33,4.19,4.19,0,0,1-1.07.92,4.87,4.87,0,0,1-1.65.65,5.75,5.75,0,0,1-4-.37,6.15,6.15,0,0,1-2.73-2.85,22.5,22.5,0,0,1-1.68-4.57,29.57,29.57,0,0,1-.85-5.68c-.12-2.05-.18-4.07-.2-6.07s.06-4,.22-5.85.33-3.53.48-4.88.3-2.46.47-3.32a7.67,7.67,0,0,1,2.2-4.28,6,6,0,0,1,8.05-.7,10.42,10.42,0,0,1,3.7,4.42q.35.71,1.83,4.55a69.76,69.76,0,0,0,3,6.8q1.5,3,2.85,3.7,2.31,1.3,2.5-2.4c0-1.07-.22-3.93-.75-8.6a21.41,21.41,0,0,1-.15-4.6,5.36,5.36,0,0,1,2.45-3.73,6.81,6.81,0,0,1,4.57-1.2,5,5,0,0,1,3.83,2.18q2.29,3.35,3.23,10.52a50.41,50.41,0,0,1-.27,14.5Q162.68,1014.68,159.43,1017.74Z"/><path class="cls-6" d="M176.67,980.93a10.52,10.52,0,0,1,4.15-.95,10.26,10.26,0,0,1,4.2.8,15.74,15.74,0,0,1,4,2.42,17.57,17.57,0,0,1,3.53,4,27.31,27.31,0,0,1,2.73,5.4,31.82,31.82,0,0,1,1.67,6.82,42.54,42.54,0,0,1,.36,8.05c0,.3-.07.93-.1,1.88s-.07,1.68-.1,2.2-.09,1.17-.18,2a16.44,16.44,0,0,1-.35,2.12,14,14,0,0,1-.52,1.75,3.73,3.73,0,0,1-2.05,2.13,5.38,5.38,0,0,1-3.35.3,6,6,0,0,1-3.25-1.87,3.59,3.59,0,0,1-1.13-2.33,6.81,6.81,0,0,1,.23-2.57,8.4,8.4,0,0,0,.3-2.6,4,4,0,0,0-.85-2.4,4.08,4.08,0,0,0-3-1.4,5.25,5.25,0,0,0-3.27.65,3.14,3.14,0,0,0-1.3,1.25,8,8,0,0,0-.6,3.3,11.78,11.78,0,0,1-.6,3.65,7.47,7.47,0,0,1-2.45,3.2,5.85,5.85,0,0,1-3.45,1.3,3.47,3.47,0,0,1-1.92-.52,3.74,3.74,0,0,1-1.36-1.6,17,17,0,0,1-.9-2.25,12.94,12.94,0,0,1-.5-2.88c-.08-1.13-.15-2.11-.2-3s0-1.85,0-3,.1-2.09.15-2.67.11-1.33.17-2.23v-.5q.65-8.3,3.35-13.45T176.67,980.93Zm1.78,18.45a4.53,4.53,0,0,0,6.35,0,4.48,4.48,0,0,0,0-6.35,4.53,4.53,0,0,0-6.35,0,4.45,4.45,0,0,0,0,6.35Z"/><path class="cls-6" d="M219.42,989.17c.4-.64.73-1.15,1-1.55s.69-1,1.27-1.7a21.68,21.68,0,0,1,1.55-1.78,18,18,0,0,1,1.68-1.45,6,6,0,0,1,1.87-1.05,5.13,5.13,0,0,1,1.9-.2,4.34,4.34,0,0,1,2,.72,4.2,4.2,0,0,1,1.92,2.43,5,5,0,0,1-.07,3,12,12,0,0,1-1.38,2.87,14.79,14.79,0,0,1-2,2.45q-6.34,6.36-6.85,9.6a3.14,3.14,0,0,0,.4,2.13,3.38,3.38,0,0,0,1.6,1.25c.7.28,1.43.54,2.18.77a10.53,10.53,0,0,1,2.2,1,3.77,3.77,0,0,1,1.53,1.65,5.62,5.62,0,0,1,.65,3.35,9.83,9.83,0,0,1-.93,3.28,5.28,5.28,0,0,1-2.22,2.32,4.75,4.75,0,0,1-3.25.55,5.06,5.06,0,0,1-2.13-1.1,14,14,0,0,1-1.82-1.67c-.47-.52-1.1-1.27-1.9-2.27l-1.05-1.35c-.24-.3-.56-.67-1-1.1a5,5,0,0,0-1-.85,3.45,3.45,0,0,0-.88-.33.94.94,0,0,0-.87.18,3.64,3.64,0,0,0-.75.95,7.75,7.75,0,0,0-.75,1.75c-.07.23-.2.72-.4,1.47s-.38,1.34-.53,1.75a13.63,13.63,0,0,1-.65,1.5,3.77,3.77,0,0,1-1,1.38,3.64,3.64,0,0,1-1.42.7,4.79,4.79,0,0,1-3.73-.6,7.37,7.37,0,0,1-2.87-2.8,9.56,9.56,0,0,1-1.13-4,34.39,34.39,0,0,1,.1-5.48,38.53,38.53,0,0,0,.22-4.3,42,42,0,0,0-.45-5q-.45-3.37-.7-5.83a18.63,18.63,0,0,1,.27-5.3,9.17,9.17,0,0,1,2.18-4.65A5.75,5.75,0,0,1,205,980.1a4.19,4.19,0,0,1,2.78.19,8,8,0,0,1,2.4,1.7,9.86,9.86,0,0,1,1.85,2.73,8.72,8.72,0,0,1,.37,3,35.34,35.34,0,0,0,.28,4.2q.25,1.9,1.2,2.25a2.07,2.07,0,0,0,1.45,0,3.57,3.57,0,0,0,1.33-1,16.1,16.1,0,0,0,1.07-1.35c.3-.44.63-1,1-1.55Z"/><circle class="cls-4" cx="159.19" cy="158.9" r="46.23"/><circle class="cls-4" cx="244.36" cy="140.3" r="46.23"/><circle class="cls-3" cx="159.19" cy="158.9" r="10.33"/><circle class="cls-5" cx="159" cy="159.19" r="5.16"/><circle class="cls-3" cx="244.26" cy="139.81" r="10.33"/><circle class="cls-5" cx="244.07" cy="140.11" r="5.16"/></svg>
